<mxfile host="app.diagrams.net" agent="Mozilla/5.0 (Windows NT 10.0; Win64; x64) AppleWebKit/537.36 (KHTML, like Gecko) Chrome/133.0.0.0 Safari/537.36" version="26.0.16">
  <diagram name="페이지-1" id="cteyWil6wfbCrvNy5hNh">
    <mxGraphModel dx="1509" dy="777" grid="1" gridSize="10" guides="1" tooltips="1" connect="1" arrows="1" fold="1" page="1" pageScale="1" pageWidth="827" pageHeight="1169" math="0" shadow="0">
      <root>
        <mxCell id="0" />
        <mxCell id="1" parent="0" />
        <mxCell id="vnAEvepF9uqeiBVWR-y5-9" style="edgeStyle=orthogonalEdgeStyle;rounded=0;orthogonalLoop=1;jettySize=auto;html=1;exitX=0.5;exitY=1;exitDx=0;exitDy=0;entryX=0.5;entryY=0;entryDx=0;entryDy=0;" edge="1" parent="1" source="vnAEvepF9uqeiBVWR-y5-1" target="vnAEvepF9uqeiBVWR-y5-2">
          <mxGeometry relative="1" as="geometry" />
        </mxCell>
        <mxCell id="vnAEvepF9uqeiBVWR-y5-1" value="보급고" style="rounded=1;whiteSpace=wrap;html=1;" vertex="1" parent="1">
          <mxGeometry x="210" y="60" width="120" height="60" as="geometry" />
        </mxCell>
        <mxCell id="vnAEvepF9uqeiBVWR-y5-10" style="edgeStyle=orthogonalEdgeStyle;rounded=0;orthogonalLoop=1;jettySize=auto;html=1;exitX=0.5;exitY=1;exitDx=0;exitDy=0;entryX=0.5;entryY=0;entryDx=0;entryDy=0;" edge="1" parent="1" source="vnAEvepF9uqeiBVWR-y5-2" target="vnAEvepF9uqeiBVWR-y5-3">
          <mxGeometry relative="1" as="geometry" />
        </mxCell>
        <mxCell id="vnAEvepF9uqeiBVWR-y5-2" value="병영" style="rounded=1;whiteSpace=wrap;html=1;" vertex="1" parent="1">
          <mxGeometry x="210" y="140" width="120" height="60" as="geometry" />
        </mxCell>
        <mxCell id="vnAEvepF9uqeiBVWR-y5-11" style="edgeStyle=orthogonalEdgeStyle;rounded=0;orthogonalLoop=1;jettySize=auto;html=1;exitX=0.5;exitY=1;exitDx=0;exitDy=0;entryX=0.5;entryY=0;entryDx=0;entryDy=0;" edge="1" parent="1" source="vnAEvepF9uqeiBVWR-y5-3" target="vnAEvepF9uqeiBVWR-y5-4">
          <mxGeometry relative="1" as="geometry" />
        </mxCell>
        <mxCell id="vnAEvepF9uqeiBVWR-y5-3" value="가스" style="rounded=1;whiteSpace=wrap;html=1;" vertex="1" parent="1">
          <mxGeometry x="210" y="220" width="120" height="60" as="geometry" />
        </mxCell>
        <mxCell id="vnAEvepF9uqeiBVWR-y5-12" style="edgeStyle=orthogonalEdgeStyle;rounded=0;orthogonalLoop=1;jettySize=auto;html=1;exitX=0.5;exitY=1;exitDx=0;exitDy=0;entryX=0.5;entryY=0;entryDx=0;entryDy=0;" edge="1" parent="1" source="vnAEvepF9uqeiBVWR-y5-4" target="vnAEvepF9uqeiBVWR-y5-5">
          <mxGeometry relative="1" as="geometry" />
        </mxCell>
        <mxCell id="vnAEvepF9uqeiBVWR-y5-4" value="가스" style="rounded=1;whiteSpace=wrap;html=1;" vertex="1" parent="1">
          <mxGeometry x="210" y="300" width="120" height="60" as="geometry" />
        </mxCell>
        <mxCell id="vnAEvepF9uqeiBVWR-y5-13" style="edgeStyle=orthogonalEdgeStyle;rounded=0;orthogonalLoop=1;jettySize=auto;html=1;exitX=0.5;exitY=1;exitDx=0;exitDy=0;entryX=0.5;entryY=0;entryDx=0;entryDy=0;" edge="1" parent="1" source="vnAEvepF9uqeiBVWR-y5-5" target="vnAEvepF9uqeiBVWR-y5-6">
          <mxGeometry relative="1" as="geometry" />
        </mxCell>
        <mxCell id="vnAEvepF9uqeiBVWR-y5-5" value="사신,궤도&lt;span style=&quot;color: rgba(0, 0, 0, 0); font-family: monospace; font-size: 0px; text-align: start; text-wrap-mode: nowrap;&quot;&gt;%3CmxGraphModel%3E%3Croot%3E%3CmxCell%20id%3D%220%22%2F%3E%3CmxCell%20id%3D%221%22%20parent%3D%220%22%2F%3E%3CmxCell%20id%3D%222%22%20value%3D%22%EA%B0%80%EC%8A%A4%22%20style%3D%22rounded%3D1%3BwhiteSpace%3Dwrap%3Bhtml%3D1%3B%22%20vertex%3D%221%22%20parent%3D%221%22%3E%3CmxGeometry%20x%3D%22210%22%20y%3D%22300%22%20width%3D%22120%22%20height%3D%2260%22%20as%3D%22geometry%22%2F%3E%3C%2FmxCell%3E%3C%2Froot%3E%3C%2FmxGraphModel%3E&lt;/span&gt;" style="rounded=1;whiteSpace=wrap;html=1;" vertex="1" parent="1">
          <mxGeometry x="210" y="435" width="120" height="60" as="geometry" />
        </mxCell>
        <mxCell id="vnAEvepF9uqeiBVWR-y5-6" value="" style="rounded=1;whiteSpace=wrap;html=1;" vertex="1" parent="1">
          <mxGeometry x="210" y="540" width="120" height="60" as="geometry" />
        </mxCell>
        <mxCell id="vnAEvepF9uqeiBVWR-y5-40" style="edgeStyle=orthogonalEdgeStyle;rounded=0;orthogonalLoop=1;jettySize=auto;html=1;exitX=0.5;exitY=1;exitDx=0;exitDy=0;entryX=0.5;entryY=0;entryDx=0;entryDy=0;" edge="1" parent="1" source="vnAEvepF9uqeiBVWR-y5-35" target="vnAEvepF9uqeiBVWR-y5-38">
          <mxGeometry relative="1" as="geometry" />
        </mxCell>
        <mxCell id="vnAEvepF9uqeiBVWR-y5-35" value="탐사정 정찰이 오는가" style="shape=hexagon;perimeter=hexagonPerimeter2;whiteSpace=wrap;html=1;fixedSize=1;" vertex="1" parent="1">
          <mxGeometry x="360" y="355" width="120" height="75" as="geometry" />
        </mxCell>
        <mxCell id="vnAEvepF9uqeiBVWR-y5-45" style="edgeStyle=orthogonalEdgeStyle;rounded=0;orthogonalLoop=1;jettySize=auto;html=1;exitX=0.5;exitY=1;exitDx=0;exitDy=0;entryX=0.5;entryY=0;entryDx=0;entryDy=0;" edge="1" parent="1" source="vnAEvepF9uqeiBVWR-y5-37" target="vnAEvepF9uqeiBVWR-y5-41">
          <mxGeometry relative="1" as="geometry" />
        </mxCell>
        <mxCell id="vnAEvepF9uqeiBVWR-y5-37" value="보급고로 가둠" style="shape=parallelogram;perimeter=parallelogramPerimeter;whiteSpace=wrap;html=1;fixedSize=1;" vertex="1" parent="1">
          <mxGeometry x="440" y="470" width="120" height="60" as="geometry" />
        </mxCell>
        <mxCell id="vnAEvepF9uqeiBVWR-y5-38" value="못가둠" style="shape=parallelogram;perimeter=parallelogramPerimeter;whiteSpace=wrap;html=1;fixedSize=1;" vertex="1" parent="1">
          <mxGeometry x="860" y="470" width="120" height="60" as="geometry" />
        </mxCell>
        <mxCell id="vnAEvepF9uqeiBVWR-y5-39" style="edgeStyle=orthogonalEdgeStyle;rounded=0;orthogonalLoop=1;jettySize=auto;html=1;exitX=0.5;exitY=1;exitDx=0;exitDy=0;entryX=0.57;entryY=0.024;entryDx=0;entryDy=0;entryPerimeter=0;" edge="1" parent="1" source="vnAEvepF9uqeiBVWR-y5-35" target="vnAEvepF9uqeiBVWR-y5-37">
          <mxGeometry relative="1" as="geometry" />
        </mxCell>
        <mxCell id="vnAEvepF9uqeiBVWR-y5-46" style="edgeStyle=orthogonalEdgeStyle;rounded=0;orthogonalLoop=1;jettySize=auto;html=1;exitX=0.5;exitY=1;exitDx=0;exitDy=0;entryX=0.5;entryY=0;entryDx=0;entryDy=0;" edge="1" parent="1" source="vnAEvepF9uqeiBVWR-y5-41" target="vnAEvepF9uqeiBVWR-y5-42">
          <mxGeometry relative="1" as="geometry" />
        </mxCell>
        <mxCell id="vnAEvepF9uqeiBVWR-y5-47" style="edgeStyle=orthogonalEdgeStyle;rounded=0;orthogonalLoop=1;jettySize=auto;html=1;exitX=0.5;exitY=1;exitDx=0;exitDy=0;entryX=0.5;entryY=0;entryDx=0;entryDy=0;" edge="1" parent="1" source="vnAEvepF9uqeiBVWR-y5-41" target="vnAEvepF9uqeiBVWR-y5-43">
          <mxGeometry relative="1" as="geometry" />
        </mxCell>
        <mxCell id="vnAEvepF9uqeiBVWR-y5-41" value="탐사정에 귀환을 썼는가" style="shape=hexagon;perimeter=hexagonPerimeter2;whiteSpace=wrap;html=1;fixedSize=1;" vertex="1" parent="1">
          <mxGeometry x="440" y="600" width="120" height="75" as="geometry" />
        </mxCell>
        <mxCell id="vnAEvepF9uqeiBVWR-y5-42" value="씀" style="shape=parallelogram;perimeter=parallelogramPerimeter;whiteSpace=wrap;html=1;fixedSize=1;" vertex="1" parent="1">
          <mxGeometry x="370" y="730" width="120" height="60" as="geometry" />
        </mxCell>
        <mxCell id="vnAEvepF9uqeiBVWR-y5-43" value="안 씀" style="shape=parallelogram;perimeter=parallelogramPerimeter;whiteSpace=wrap;html=1;fixedSize=1;" vertex="1" parent="1">
          <mxGeometry x="550" y="730" width="120" height="60" as="geometry" />
        </mxCell>
      </root>
    </mxGraphModel>
  </diagram>
</mxfile>
